<?xml version="1.0" encoding="UTF-8"?><svg id="Layer_1" xmlns="http://www.w3.org/2000/svg" viewBox="0 0 636.42 407.2"><defs><style>.cls-1{letter-spacing:-.09em;}.cls-2{font-family:Helvetica-Light, Helvetica;font-size:50px;}.cls-2,.cls-3{fill:#0a3c49;}.cls-4{fill:#093c49;}.cls-3{font-family:Times-Roman, Times;font-size:125px;}</style></defs><text class="cls-3" transform="translate(0 320.27)"><tspan x="0" y="0">Cake</tspan><tspan class="cls-1" x="256.84" y="0">A</tspan><tspan x="335.63" y="0">way</tspan></text><text class="cls-2" transform="translate(203.24 389.45)"><tspan x="0" y="0">EST. 22</tspan></text><g><path class="cls-4" d="M133.17,154.09c-1.65-.21-2.94-1.51-3.12-3.16-.46-4.35-.15-12.2,8.36-11.54,10.71,.82,254.72,.11,296.82-.02,5.06-.02,9.81,2.82,11.87,7.44,1.11,2.5,1.28,5.1-1.2,6.91-6.2,4.52-259.58,7.21-312.73,.38Z"/><g><path class="cls-4" d="M266.36,158.16s15.67,15.01,4.65,30.67c-8.78,12.47-20.5,21.27-24.91,24.33-1.12,.78-1.78,2.05-1.78,3.41h0c0,2.3,1.86,4.16,4.16,4.16h44.46c2.3,0,4.16-1.86,4.16-4.16v-62.55"/><path class="cls-4" d="M311.44,158.16s-15.67,15.01-4.65,30.67c8.78,12.47,20.5,21.27,24.91,24.33,1.12,.78,1.78,2.05,1.78,3.41h0c0,2.3-1.86,4.16-4.16,4.16h-44.46c-2.3,0-4.16-1.86-4.16-4.16v-62.55"/></g></g><path class="cls-4" d="M215,67.57l17.87,66.38c1.47,5.46,6.42,9.26,12.08,9.26h91.96c5.93,0,11.04-4.16,12.25-9.96l13.83-66.38c1.62-7.77-4.31-15.06-12.25-15.06h-123.65c-8.23,0-14.22,7.81-12.08,15.76Z"/><path class="cls-4" d="M244.33,51.81s-10.79-35.78,44.57-35.78,44.57,35.78,44.57,35.78"/><circle class="cls-4" cx="291.68" cy="11" r="11"/></svg>